<?xml version="1.0" encoding="utf-8"?>
<!-- Generator: Adobe Illustrator 27.3.1, SVG Export Plug-In . SVG Version: 6.00 Build 0)  -->
<svg version="1.1" id="Layer_1" xmlns="http://www.w3.org/2000/svg" xmlns:xlink="http://www.w3.org/1999/xlink" x="0px" y="0px"
	 viewBox="0 0 1366 768" style="enable-background:new 0 0 1366 768;" xml:space="preserve">
<style type="text/css">
	.st0{fill:none;stroke:#006894;stroke-width:45;stroke-linecap:round;stroke-miterlimit:10;}
	.st1{fill:#006894;}
</style>
<g>
	<path class="st0" d="M692.73,540.32H429.04c-19.26,0-34.87-18.36-34.87-41v-253c0-22.64,15.61-41,34.87-41h507.91
		c19.26,0,34.87,18.36,34.87,41v253c0,22.64-15.61,41-34.87,41H814.19"/>
	<g>
		<path class="st1" d="M771.62,421.72c-12.19-6.43-25.28-10.58-38.26-13.48c-18.6-4.16-37.58-5.95-56.47-7.57
			c-13.05-0.99-26.09-1.97-39.14-2.96c-17.06-1.33-34.45-2.08-51.36-5.54c-8.47-2.63-22.89-5.59-23.19-19.39
			c-0.12-5.63,3.07-11.13,9.1-16.06c7.21-5.9,15.7-8.82,23.8-11.08c14.8-4.11,31.08-4.81,46.62-4.8
			c35.37,0.01,71.36,5.97,104.21,22.92c9.64,4.81,14.46,9.31,14.46,13.49c0,0.74-0.08,1.73-0.25,2.96c2.79,1.18,4.19,1.77,6.98,2.96
			c13.54-19.8,27.09-39.6,40.63-59.4c-2.79-1.11-4.19-1.67-6.98-2.79c-4.66,2.85-8.73,4.27-12.22,4.27c-2.17,0-8.07-1.42-17.7-4.27
			c-23.23-7.14-46.61-13.93-70.3-18.09c-20.16-3.54-40.52-4.77-60.83-4.92c-38.89-0.3-83.69,2.94-116.67,27.56
			c-14.87,11.1-29.98,28.85-29.66,52.9c0.17,12.72,4.38,25.27,11.71,34.41c10.07,12.55,22.3,19.35,35.65,24.97
			c10.44,3.88,21.13,6.81,31.91,8.6c18.06,3,36.39,4.2,54.59,5.64c12.8,0.98,25.6,1.97,38.4,2.95c17.01,1.47,34.63,2.22,51.35,6.83
			c7.36,1.76,18.32,6.92,18.2,17.87c-0.48,43.89-58.46,35.74-84.64,42.72c-20.93,5.59-45.35,8.76-66.38,3.76c-0.25-0.06,0,13.59,0,0
			c0,14.88-2.28,3.38-2.28,18.32c37,6.36,75.05,13.1,112.21,17.61c32.56,3.95,64.16-12.79,89.95-37.69
			c11.67-11.27,23.19-27.48,23.18-47.28c0-11.88-4.48-22.71-9.85-31.58C792.08,435.07,781.81,427.09,771.62,421.72z"/>
	</g>
	<path class="st1" d="M800.69,522.86"/>
</g>
</svg>
